<?xml version="1.0" encoding="utf-8"?>
<!-- Generator: Adobe Illustrator 16.0.0, SVG Export Plug-In . SVG Version: 6.00 Build 0)  -->
<!DOCTYPE svg PUBLIC "-//W3C//DTD SVG 1.1//EN" "http://www.w3.org/Graphics/SVG/1.1/DTD/svg11.dtd">
<svg version="1.1" id="Capa_1" xmlns="http://www.w3.org/2000/svg" xmlns:xlink="http://www.w3.org/1999/xlink" x="0px" y="0px"
	 width="239px" height="198px" viewBox="0 0 239 198" style="enable-background:new 0 0 239 198;" xml:space="preserve">
<g>
	<g>
		<polygon style="fill:#94BB1E;" points="119.47,28.136 67.542,28.136 67.542,131.961 171.389,131.961 171.389,80.043 
			119.47,80.043 		"/>
		<polygon style="fill:#0056B3;" points="197.499,2.109 119.448,2.109 119.448,28.131 171.386,28.131 171.386,80.043 
			197.499,80.043 		"/>
	</g>
	<g>
		<path style="fill:#0B326B;" d="M20.601,167.027v3.854H3.151v-25.934h4.113v22.08H20.601z"/>
		<path style="fill:#0B326B;" d="M43.387,164.909H31.276l-2.407,5.892h-4.412l10.968-25.936h3.815l10.968,25.936h-4.41
			L43.387,164.909z M41.908,161.318l-3.335-8.117c-0.555-1.402-1.188-3.369-1.218-3.369h-0.042c-0.036,0-0.665,1.967-1.22,3.369
			l-3.335,8.117H41.908z"/>
		<path style="fill:#0B326B;" d="M66.216,152.509c-0.594-2.894-3.037-4.521-5.819-4.521c-2.885,0-4.852,1.408-4.852,3.481
			c0,2.48,3.26,3.298,6.594,4.337c3.708,1.184,8.334,2.998,8.334,7.85c0,4.479-3.883,7.746-9.667,7.746
			c-5.52,0-9.152-3.188-10.26-7.708l3.926-1.076c0.479,2.708,2.74,5.113,6.484,5.113c3.3,0,5.221-1.7,5.221-3.925
			c0-3.223-4.004-3.891-7.67-5.117c-3.035-1.032-7.148-2.478-7.148-6.997c0-4.042,3.891-7.262,9.229-7.262
			c4.813,0,8.59,2.855,9.554,7.003L66.216,152.509z"/>
		<path style="fill:#0B326B;" d="M100.688,152.509c-0.589-2.894-3.036-4.521-5.82-4.521c-2.889,0-4.852,1.408-4.852,3.481
			c0,2.48,3.261,3.298,6.594,4.337c3.709,1.184,8.339,2.998,8.339,7.85c0,4.479-3.888,7.746-9.674,7.746
			c-5.513,0-9.146-3.188-10.26-7.708l3.926-1.076c0.483,2.708,2.743,5.113,6.484,5.113c3.301,0,5.228-1.7,5.228-3.925
			c0-3.223-4.006-3.891-7.673-5.117c-3.036-1.032-7.149-2.478-7.149-6.997c0-4.042,3.893-7.262,9.226-7.262
			c4.818,0,8.594,2.855,9.557,7.003L100.688,152.509z"/>
		<path style="fill:#94BB1E;" d="M125.884,164.991h-12.115l-2.409,5.89h-4.408l10.967-25.934h3.815l10.967,25.934h-4.404
			L125.884,164.991z M124.4,161.397l-3.327-8.116c-0.563-1.398-1.188-3.366-1.229-3.366h-0.035c-0.036,0-0.667,1.968-1.225,3.366
			l-3.336,8.116H124.4z"/>
		<path style="fill:#0B326B;" d="M152.641,167.027v3.854h-17.447v-25.934h4.109v22.08H152.641z"/>
		<path style="fill:#0B326B;" d="M155.943,170.881v-25.934h4.116v25.934H155.943z"/>
		<path style="fill:#0B326B;" d="M186.369,144.947v25.934h-3.858l-9.443-12.752c-2.296-3.142-4.516-6.364-4.553-6.364h-0.042
			c-0.035,0,0.079,3.482,0.079,8.111v11.005h-4.119v-25.934h3.854l9.523,12.783c1.855,2.521,4.446,6.148,4.484,6.148h0.034
			c0.04,0-0.072-3.817-0.072-7.889v-11.043H186.369z"/>
		<path style="fill:#0B326B;" d="M209.23,164.991h-12.109l-2.41,5.89H190.3l10.969-25.934h3.813l10.965,25.934h-4.409
			L209.23,164.991z M207.748,161.397l-3.33-8.116c-0.562-1.398-1.187-3.366-1.221-3.366h-0.041c-0.036,0-0.67,1.968-1.222,3.366
			l-3.334,8.116H207.748z"/>
		<path style="fill:#0B326B;" d="M231.804,152.509c-0.594-2.894-3.038-4.521-5.821-4.521c-2.888,0-4.852,1.408-4.852,3.481
			c0,2.48,3.258,3.298,6.599,4.337c3.701,1.184,8.336,2.998,8.336,7.85c0,4.479-3.888,7.746-9.67,7.746
			c-5.522,0-9.15-3.188-10.268-7.708l3.929-1.076c0.481,2.708,2.744,5.113,6.486,5.113c3.297,0,5.224-1.7,5.224-3.925
			c0-3.223-4.001-3.891-7.669-5.117c-3.041-1.032-7.151-2.478-7.151-6.997c0-4.042,3.892-7.262,9.22-7.262
			c4.821,0,8.6,2.855,9.565,7.003L231.804,152.509z"/>
	</g>
	<g>
		<path style="fill:#0B326B;" d="M67.405,195.513v-10.159h1.608v10.159H67.405z"/>
		<path style="fill:#0B326B;" d="M80.854,185.354v10.159h-1.509l-3.706-4.986c-0.9-1.239-1.766-2.505-1.766-2.505h-0.03
			c-0.011,0,0.03,1.373,0.03,3.183v4.309h-1.609v-10.159h1.5l3.731,5.01c0.728,0.994,1.743,2.409,1.76,2.409h0.014
			c0,0-0.031-1.493-0.031-3.089v-4.33H80.854z"/>
		<path style="fill:#0B326B;" d="M93.132,185.354v10.159h-1.584v-3.87c0-1.841,0.083-3.588,0.071-3.588h-0.013
			c0,0-0.637,1.077-0.899,1.54l-1.973,3.412h-0.847l-1.973-3.412c-0.262-0.463-0.869-1.54-0.869-1.54h-0.03
			c-0.014,0,0.059,1.747,0.059,3.588v3.87h-1.582v-10.159h1.509l2.307,3.893c0.844,1.396,0.987,1.745,1.006,1.745h0.011
			c0.019,0,0.161-0.349,0.985-1.745l2.31-3.893H93.132z"/>
		<path style="fill:#0B326B;" d="M100.465,185.178c2.917,0,5.288,2.223,5.288,5.286c0,3.057-2.371,5.286-5.288,5.286
			c-2.92,0-5.274-2.229-5.274-5.286C95.19,187.4,97.545,185.178,100.465,185.178z M100.465,194.163c2.073,0,3.619-1.508,3.619-3.699
			c0-2.225-1.545-3.706-3.619-3.706c-2.09,0-3.613,1.481-3.613,3.706C96.852,192.655,98.375,194.163,100.465,194.163z"/>
		<path style="fill:#0B326B;" d="M112.123,185.354c1.792,0,2.995,1.092,2.995,2.559c0,1.021-0.796,1.875-1.537,2.06v0.021
			c0.968,0.159,2.147,1.187,2.147,2.51c0,1.736-1.194,3.011-3.446,3.011h-4.161v-10.159H112.123z M111.804,189.491
			c1.02,0,1.702-0.623,1.702-1.397c0-0.823-0.682-1.375-1.702-1.375h-2.076v2.772H111.804z M112.142,194.154
			c1.112,0,1.916-0.672,1.916-1.698c0-1.017-0.873-1.709-1.96-1.709h-2.37v3.407H112.142z"/>
		<path style="fill:#0B326B;" d="M118.409,195.513v-10.159h1.608v10.159H118.409z"/>
		<path style="fill:#0B326B;" d="M129.899,194.013v1.5h-6.84v-10.159h1.61v8.659H129.899z"/>
		<path style="fill:#0B326B;" d="M132.311,195.513v-10.159h1.614v10.159H132.311z"/>
		<path style="fill:#0B326B;" d="M143.837,193.211h-4.75l-0.936,2.302h-1.731l4.299-10.159h1.498l4.292,10.159h-1.726
			L143.837,193.211z M143.257,191.802l-1.305-3.18c-0.217-0.547-0.47-1.322-0.48-1.322h-0.017c0,0-0.257,0.775-0.48,1.322
			l-1.306,3.18H143.257z"/>
		<path style="fill:#0B326B;" d="M154.077,195.513l-2.151-3.638c-0.104,0.02-0.205,0.02-0.322,0.02h-1.709v3.618h-1.618v-10.159
			h3.327c2.443,0,3.907,1.292,3.907,3.303c0,1.419-0.74,2.447-2.034,2.928l2.412,3.929H154.077z M151.794,190.464
			c1.378,0,2.047-0.81,2.047-1.808c0-1.052-0.72-1.791-2.047-1.791h-1.899v3.599H151.794z"/>
		<path style="fill:#0B326B;" d="M158.489,195.513v-10.159h1.613v10.159H158.489z"/>
		<path style="fill:#0B326B;" d="M168.875,193.211h-4.743l-0.95,2.302h-1.727l4.303-10.159h1.49l4.299,10.159h-1.729
			L168.875,193.211z M168.295,191.802l-1.307-3.18c-0.222-0.547-0.467-1.322-0.467-1.322h-0.031c0,0-0.253,0.775-0.473,1.322
			l-1.309,3.18H168.295z"/>
	</g>
</g>
</svg>
